# xmcd CD database file
#
# Track frame offsets:
#	150
#	15268
#	27895
#	39913
#	50074
#	67441
#	83188
#	95386
#	114239
#	130251
#	140575
#	162150
#	176418
#	188151
#	215808
#
# Disc length: 3045 seconds
#
# Revision: 0
# Processed by: cddbd v1.5.2PL0 Copyright (c) Steve Scherf et al.
# Submitted via: CDex 1.70beta2
#
DISCID=cd0be30f
DTITLE=Various Artist - PianoBar - Jazz Meets Pop
DYEAR=1900
DGENRE=Jazz
TTITLE0=The Shadow Of Your Smile
TTITLE1=Music Box Dancer
TTITLE2=Ballade Pour Adeline
TTITLE3=Do You Know Why ?
TTITLE4=Morning Rain
TTITLE5=Isn't She Lovely
TTITLE6=How Insensitive
TTITLE7=Think Of You
TTITLE8=Adventure In Love
TTITLE9=Never Say No
TTITLE10=Life's So Good
TTITLE11=Together Forever
TTITLE12=Speak Softly Love
TTITLE13=Moon River
TTITLE14=Last  Night
EXTD=
EXTT0=
EXTT1=
EXTT2=
EXTT3=
EXTT4=
EXTT5=
EXTT6=
EXTT7=
EXTT8=
EXTT9=
EXTT10=
EXTT11=
EXTT12=
EXTT13=
EXTT14=
PLAYORDER=
